G04 #@! TF.FileFunction,Copper,L1,Top,Signal*
%FSLAX46Y46*%
G04 Gerber Fmt 4.6, Leading zero omitted, Abs format (unit mm)*
G04 Created by KiCad (PCBNEW 4.0.5-e0-6337~49~ubuntu15.04.1) date Fri Feb 24 10:43:51 2017*
%MOMM*%
%LPD*%
G01*
G04 APERTURE LIST*
%ADD10C,0.100000*%
%ADD11O,3.010000X1.510000*%
%ADD12R,1.500000X0.900000*%
%ADD13R,1.250000X1.500000*%
%ADD14C,0.600000*%
%ADD15C,0.250000*%
%ADD16C,0.400000*%
%ADD17C,0.254000*%
G04 APERTURE END LIST*
D10*
D11*
X58600000Y-29800000D03*
X58600000Y-27260000D03*
X58600000Y-24720000D03*
D12*
X47550000Y-22550000D03*
X47550000Y-19250000D03*
X52450000Y-19250000D03*
X52450000Y-22550000D03*
X47550000Y-30450000D03*
X47550000Y-27150000D03*
X52450000Y-27150000D03*
X52450000Y-30450000D03*
D13*
X45100000Y-29950000D03*
X45100000Y-27450000D03*
X45100000Y-37250000D03*
X45100000Y-34750000D03*
X33700000Y-37250000D03*
X33700000Y-34750000D03*
X22900000Y-37250000D03*
X22900000Y-34750000D03*
X33700000Y-29950000D03*
X33700000Y-27450000D03*
X22900000Y-29950000D03*
X22900000Y-27450000D03*
X45100000Y-22050000D03*
X45100000Y-19550000D03*
X33700000Y-22050000D03*
X33700000Y-19550000D03*
X22900000Y-22050000D03*
X22900000Y-19550000D03*
D12*
X25750000Y-22550000D03*
X25750000Y-19250000D03*
X30650000Y-19250000D03*
X30650000Y-22550000D03*
X25750000Y-37750000D03*
X25750000Y-34450000D03*
X30650000Y-34450000D03*
X30650000Y-37750000D03*
X25750000Y-30450000D03*
X25750000Y-27150000D03*
X30650000Y-27150000D03*
X30650000Y-30450000D03*
X36250000Y-22550000D03*
X36250000Y-19250000D03*
X41150000Y-19250000D03*
X41150000Y-22550000D03*
X36250000Y-37750000D03*
X36250000Y-34450000D03*
X41150000Y-34450000D03*
X41150000Y-37750000D03*
X36250000Y-30450000D03*
X36250000Y-27150000D03*
X41150000Y-27150000D03*
X41150000Y-30450000D03*
X47550000Y-37750000D03*
X47550000Y-34450000D03*
X52450000Y-34450000D03*
X52450000Y-37750000D03*
D11*
X17000000Y-24700000D03*
X17000000Y-27240000D03*
X17000000Y-29780000D03*
D14*
X52450000Y-37750000D03*
X45300000Y-37200000D03*
X41150000Y-37750000D03*
X33800000Y-37300000D03*
X30650000Y-37750000D03*
X22900000Y-37300000D03*
X52450000Y-30450000D03*
X45200000Y-30100000D03*
X41150000Y-30450000D03*
X30800000Y-30500000D03*
X33700000Y-29950000D03*
X22900000Y-30000000D03*
X52450000Y-22550000D03*
X45200000Y-22100000D03*
X41200000Y-22700000D03*
X33700000Y-22050000D03*
X30700000Y-22600000D03*
X22900000Y-22050000D03*
D15*
X45300000Y-37200000D02*
X45250000Y-37250000D01*
X45250000Y-37250000D02*
X45100000Y-37250000D01*
X33800000Y-37300000D02*
X33750000Y-37250000D01*
X33750000Y-37250000D02*
X33700000Y-37250000D01*
X22900000Y-37300000D02*
X22900000Y-37250000D01*
X45200000Y-30100000D02*
X45100000Y-30000000D01*
X45100000Y-30000000D02*
X45100000Y-29950000D01*
X30800000Y-30500000D02*
X30750000Y-30450000D01*
X30750000Y-30450000D02*
X30650000Y-30450000D01*
X22900000Y-30000000D02*
X22900000Y-29950000D01*
X45200000Y-22100000D02*
X45150000Y-22050000D01*
X45150000Y-22050000D02*
X45100000Y-22050000D01*
X41200000Y-22700000D02*
X41150000Y-22650000D01*
X41150000Y-22650000D02*
X41150000Y-22550000D01*
X30700000Y-22600000D02*
X30650000Y-22550000D01*
D16*
X33700000Y-19550000D02*
X33550000Y-19550000D01*
X45100000Y-19550000D02*
X45050000Y-19550000D01*
X33700000Y-27450000D02*
X33700000Y-27300000D01*
X45100000Y-27450000D02*
X45100000Y-26800000D01*
X25750000Y-34450000D02*
X26250000Y-34450000D01*
X17210000Y-27450000D02*
X17000000Y-27240000D01*
X23200000Y-19250000D02*
X22900000Y-19550000D01*
X23200000Y-27150000D02*
X22900000Y-27450000D01*
X23200000Y-34450000D02*
X22900000Y-34750000D01*
X36250000Y-34450000D02*
X34000000Y-34450000D01*
X34000000Y-34450000D02*
X33700000Y-34750000D01*
X34000000Y-27150000D02*
X33700000Y-27450000D01*
X34000000Y-19250000D02*
X33700000Y-19550000D01*
X45400000Y-19250000D02*
X45100000Y-19550000D01*
X45400000Y-27150000D02*
X45100000Y-27450000D01*
X45400000Y-34450000D02*
X45100000Y-34750000D01*
X33900000Y-19150000D02*
X33500000Y-19550000D01*
D15*
X25750000Y-22550000D02*
X27350000Y-22550000D01*
X49800000Y-24400000D02*
X52450000Y-27050000D01*
X29200000Y-24400000D02*
X49800000Y-24400000D01*
X27350000Y-22550000D02*
X29200000Y-24400000D01*
X52450000Y-27050000D02*
X52450000Y-27150000D01*
X36250000Y-22550000D02*
X35550000Y-22550000D01*
X35550000Y-22550000D02*
X34600000Y-23500000D01*
X34600000Y-23500000D02*
X32900000Y-23500000D01*
X32900000Y-23500000D02*
X32100000Y-22700000D01*
X32100000Y-22700000D02*
X32100000Y-20700000D01*
X32100000Y-20700000D02*
X30650000Y-19250000D01*
X25750000Y-37750000D02*
X25250000Y-37750000D01*
X25250000Y-37750000D02*
X24111562Y-38615213D01*
X24111562Y-38615213D02*
X21800000Y-38600000D01*
X21800000Y-38600000D02*
X21000000Y-37600000D01*
X21000000Y-37600000D02*
X21000000Y-33300000D01*
X21000000Y-33300000D02*
X17000000Y-29780000D01*
X36250000Y-37750000D02*
X35750000Y-37750000D01*
X35750000Y-37750000D02*
X34800000Y-38700000D01*
X34800000Y-38700000D02*
X32600000Y-38700000D01*
X32600000Y-38700000D02*
X32100000Y-38200000D01*
X32100000Y-38200000D02*
X32100000Y-35900000D01*
X32100000Y-35900000D02*
X30650000Y-34450000D01*
X25750000Y-30450000D02*
X27250000Y-30450000D01*
X52450000Y-33950000D02*
X52450000Y-34450000D01*
X51100000Y-32100000D02*
X52450000Y-33950000D01*
X28900000Y-32100000D02*
X51100000Y-32100000D01*
X28600000Y-31800000D02*
X28900000Y-32100000D01*
X27250000Y-30450000D02*
X28600000Y-31800000D01*
X36250000Y-30450000D02*
X35750000Y-30450000D01*
X35750000Y-30450000D02*
X34900000Y-31300000D01*
X34900000Y-31300000D02*
X32600000Y-31300000D01*
X32600000Y-31300000D02*
X32100000Y-30800000D01*
X32100000Y-30800000D02*
X32100000Y-28600000D01*
X32100000Y-28600000D02*
X30650000Y-27150000D01*
X46201969Y-23400000D02*
X46202148Y-23400000D01*
X46202148Y-23400000D02*
X46950000Y-22550000D01*
X46950000Y-22550000D02*
X47550000Y-22550000D01*
X47550000Y-22550000D02*
X47550000Y-22750000D01*
X46201969Y-23400000D02*
X43900000Y-23400000D01*
X43900000Y-23400000D02*
X43100000Y-22800000D01*
X43100000Y-22800000D02*
X43100000Y-21200000D01*
X43100000Y-21200000D02*
X41250000Y-19350000D01*
X47550000Y-37750000D02*
X47150000Y-37750000D01*
X47150000Y-37750000D02*
X46200000Y-38700000D01*
X46200000Y-38700000D02*
X43900000Y-38700000D01*
X43900000Y-38700000D02*
X43100000Y-37900000D01*
X43100000Y-37900000D02*
X43100000Y-36400000D01*
X43100000Y-36400000D02*
X41150000Y-34450000D01*
X47550000Y-30450000D02*
X47150000Y-30450000D01*
X47150000Y-30450000D02*
X46300000Y-31300000D01*
X46300000Y-31300000D02*
X43700000Y-31300000D01*
X43700000Y-31300000D02*
X43100000Y-30700000D01*
X43100000Y-30700000D02*
X43100000Y-29100000D01*
X43100000Y-29100000D02*
X41150000Y-27150000D01*
X58600000Y-24720000D02*
X56920000Y-24720000D01*
X53500000Y-19200000D02*
X52450000Y-19250000D01*
X56000000Y-21900000D02*
X53500000Y-19200000D01*
X55900000Y-23700000D02*
X56000000Y-21900000D01*
X56920000Y-24720000D02*
X55900000Y-23700000D01*
D17*
G36*
X49473000Y-20572549D02*
X46304080Y-20561312D01*
X46360000Y-20426309D01*
X46360000Y-20158025D01*
X46440302Y-20238327D01*
X46673691Y-20335000D01*
X47264250Y-20335000D01*
X47423000Y-20176250D01*
X47423000Y-19377000D01*
X47677000Y-19377000D01*
X47677000Y-20176250D01*
X47835750Y-20335000D01*
X48426309Y-20335000D01*
X48659698Y-20238327D01*
X48838327Y-20059699D01*
X48935000Y-19826310D01*
X48935000Y-19535750D01*
X48776250Y-19377000D01*
X47677000Y-19377000D01*
X47423000Y-19377000D01*
X47403000Y-19377000D01*
X47403000Y-19123000D01*
X47423000Y-19123000D01*
X47423000Y-18323750D01*
X47677000Y-18323750D01*
X47677000Y-19123000D01*
X48776250Y-19123000D01*
X48935000Y-18964250D01*
X48935000Y-18673690D01*
X48838327Y-18440301D01*
X48659698Y-18261673D01*
X48426309Y-18165000D01*
X47835750Y-18165000D01*
X47677000Y-18323750D01*
X47423000Y-18323750D01*
X47264250Y-18165000D01*
X46673691Y-18165000D01*
X46440302Y-18261673D01*
X46262500Y-18439474D01*
X46084699Y-18261673D01*
X45851310Y-18165000D01*
X45385750Y-18165000D01*
X45227000Y-18323750D01*
X45227000Y-19423000D01*
X45247000Y-19423000D01*
X45247000Y-19677000D01*
X45227000Y-19677000D01*
X45227000Y-19697000D01*
X44973000Y-19697000D01*
X44973000Y-19677000D01*
X43998750Y-19677000D01*
X43840000Y-19835750D01*
X43840000Y-20426309D01*
X43892378Y-20552760D01*
X43526263Y-20551461D01*
X42547440Y-19572638D01*
X42547440Y-18800000D01*
X42523674Y-18673691D01*
X43840000Y-18673691D01*
X43840000Y-19264250D01*
X43998750Y-19423000D01*
X44973000Y-19423000D01*
X44973000Y-18323750D01*
X44814250Y-18165000D01*
X44348690Y-18165000D01*
X44115301Y-18261673D01*
X43936673Y-18440302D01*
X43840000Y-18673691D01*
X42523674Y-18673691D01*
X42503162Y-18564683D01*
X42364090Y-18348559D01*
X42151890Y-18203569D01*
X41900000Y-18152560D01*
X40400000Y-18152560D01*
X40164683Y-18196838D01*
X39948559Y-18335910D01*
X39803569Y-18548110D01*
X39752560Y-18800000D01*
X39752560Y-19700000D01*
X39796838Y-19935317D01*
X39935910Y-20151441D01*
X40148110Y-20296431D01*
X40400000Y-20347440D01*
X41172638Y-20347440D01*
X41369009Y-20543811D01*
X34920800Y-20520946D01*
X34960000Y-20426309D01*
X34960000Y-20055660D01*
X34961673Y-20059699D01*
X35140302Y-20238327D01*
X35373691Y-20335000D01*
X35964250Y-20335000D01*
X36123000Y-20176250D01*
X36123000Y-19377000D01*
X36377000Y-19377000D01*
X36377000Y-20176250D01*
X36535750Y-20335000D01*
X37126309Y-20335000D01*
X37359698Y-20238327D01*
X37538327Y-20059699D01*
X37635000Y-19826310D01*
X37635000Y-19535750D01*
X37476250Y-19377000D01*
X36377000Y-19377000D01*
X36123000Y-19377000D01*
X36103000Y-19377000D01*
X36103000Y-19123000D01*
X36123000Y-19123000D01*
X36123000Y-18323750D01*
X36377000Y-18323750D01*
X36377000Y-19123000D01*
X37476250Y-19123000D01*
X37635000Y-18964250D01*
X37635000Y-18673690D01*
X37538327Y-18440301D01*
X37359698Y-18261673D01*
X37126309Y-18165000D01*
X36535750Y-18165000D01*
X36377000Y-18323750D01*
X36123000Y-18323750D01*
X35964250Y-18165000D01*
X35373691Y-18165000D01*
X35140302Y-18261673D01*
X34961673Y-18440301D01*
X34912500Y-18559015D01*
X34863327Y-18440302D01*
X34684699Y-18261673D01*
X34451310Y-18165000D01*
X33985750Y-18165000D01*
X33827000Y-18323750D01*
X33827000Y-19423000D01*
X33847000Y-19423000D01*
X33847000Y-19677000D01*
X33827000Y-19677000D01*
X33827000Y-19697000D01*
X33573000Y-19697000D01*
X33573000Y-19677000D01*
X32598750Y-19677000D01*
X32440000Y-19835750D01*
X32440000Y-19965198D01*
X32047440Y-19572638D01*
X32047440Y-18800000D01*
X32023674Y-18673691D01*
X32440000Y-18673691D01*
X32440000Y-19264250D01*
X32598750Y-19423000D01*
X33573000Y-19423000D01*
X33573000Y-18323750D01*
X33414250Y-18165000D01*
X32948690Y-18165000D01*
X32715301Y-18261673D01*
X32536673Y-18440302D01*
X32440000Y-18673691D01*
X32023674Y-18673691D01*
X32003162Y-18564683D01*
X31864090Y-18348559D01*
X31651890Y-18203569D01*
X31400000Y-18152560D01*
X29900000Y-18152560D01*
X29664683Y-18196838D01*
X29448559Y-18335910D01*
X29303569Y-18548110D01*
X29252560Y-18800000D01*
X29252560Y-19700000D01*
X29296838Y-19935317D01*
X29435910Y-20151441D01*
X29648110Y-20296431D01*
X29900000Y-20347440D01*
X30672638Y-20347440D01*
X30831643Y-20506445D01*
X24136640Y-20482704D01*
X24160000Y-20426309D01*
X24160000Y-19835750D01*
X24001250Y-19677000D01*
X23027000Y-19677000D01*
X23027000Y-19697000D01*
X22773000Y-19697000D01*
X22773000Y-19677000D01*
X21798750Y-19677000D01*
X21640000Y-19835750D01*
X21640000Y-20426309D01*
X21659721Y-20473920D01*
X21436811Y-20473130D01*
X21387366Y-20482960D01*
X21345641Y-20511253D01*
X21318211Y-20553551D01*
X21309394Y-20597243D01*
X21202579Y-25297114D01*
X21211459Y-25346739D01*
X21238947Y-25388999D01*
X21280711Y-25417235D01*
X21329546Y-25427000D01*
X49752198Y-25427000D01*
X51052560Y-26727362D01*
X51052560Y-27600000D01*
X51096838Y-27835317D01*
X51235910Y-28051441D01*
X51448110Y-28196431D01*
X51700000Y-28247440D01*
X53200000Y-28247440D01*
X53435317Y-28203162D01*
X53651441Y-28064090D01*
X53796431Y-27851890D01*
X53847440Y-27600000D01*
X53847440Y-26700000D01*
X53803162Y-26464683D01*
X53664090Y-26248559D01*
X53451890Y-26103569D01*
X53200000Y-26052560D01*
X52527362Y-26052560D01*
X51901802Y-25427000D01*
X55073000Y-25427000D01*
X55073000Y-26100000D01*
X55083006Y-26149410D01*
X55111447Y-26191035D01*
X55153841Y-26218315D01*
X55200000Y-26227000D01*
X56950293Y-26227000D01*
X56777319Y-26366924D01*
X56517207Y-26845403D01*
X56502723Y-26918029D01*
X56625317Y-27133000D01*
X58473000Y-27133000D01*
X58473000Y-27113000D01*
X58727000Y-27113000D01*
X58727000Y-27133000D01*
X58747000Y-27133000D01*
X58747000Y-27387000D01*
X58727000Y-27387000D01*
X58727000Y-27407000D01*
X58473000Y-27407000D01*
X58473000Y-27387000D01*
X56625317Y-27387000D01*
X56502723Y-27601971D01*
X56517207Y-27674597D01*
X56733788Y-28073000D01*
X55700000Y-28073000D01*
X55650590Y-28083006D01*
X55608965Y-28111447D01*
X55581685Y-28153841D01*
X55573000Y-28200000D01*
X55573000Y-32600000D01*
X55583006Y-32649410D01*
X55611447Y-32691035D01*
X55653841Y-32718315D01*
X55700000Y-32727000D01*
X56273000Y-32727000D01*
X56273000Y-35272636D01*
X55700364Y-35270995D01*
X55650925Y-35280859D01*
X55609220Y-35309180D01*
X55581818Y-35351496D01*
X55573000Y-35397994D01*
X55573000Y-36453498D01*
X55564902Y-36473000D01*
X49527000Y-36473000D01*
X49527000Y-35379943D01*
X49516994Y-35330533D01*
X49488553Y-35288908D01*
X49446159Y-35261628D01*
X49400364Y-35252944D01*
X48841788Y-35251343D01*
X48935000Y-35026310D01*
X48935000Y-34735750D01*
X48776250Y-34577000D01*
X47677000Y-34577000D01*
X47677000Y-34597000D01*
X47423000Y-34597000D01*
X47423000Y-34577000D01*
X47403000Y-34577000D01*
X47403000Y-34323000D01*
X47423000Y-34323000D01*
X47423000Y-33523750D01*
X47677000Y-33523750D01*
X47677000Y-34323000D01*
X48776250Y-34323000D01*
X48935000Y-34164250D01*
X48935000Y-33873690D01*
X48838327Y-33640301D01*
X48659698Y-33461673D01*
X48426309Y-33365000D01*
X47835750Y-33365000D01*
X47677000Y-33523750D01*
X47423000Y-33523750D01*
X47264250Y-33365000D01*
X46673691Y-33365000D01*
X46440302Y-33461673D01*
X46262500Y-33639474D01*
X46084699Y-33461673D01*
X45851310Y-33365000D01*
X45385750Y-33365000D01*
X45227000Y-33523750D01*
X45227000Y-34623000D01*
X45247000Y-34623000D01*
X45247000Y-34877000D01*
X45227000Y-34877000D01*
X45227000Y-34897000D01*
X44973000Y-34897000D01*
X44973000Y-34877000D01*
X43998750Y-34877000D01*
X43840000Y-35035750D01*
X43840000Y-35237012D01*
X43009434Y-35234632D01*
X42547440Y-34772638D01*
X42547440Y-34000000D01*
X42523674Y-33873691D01*
X43840000Y-33873691D01*
X43840000Y-34464250D01*
X43998750Y-34623000D01*
X44973000Y-34623000D01*
X44973000Y-33523750D01*
X44814250Y-33365000D01*
X44348690Y-33365000D01*
X44115301Y-33461673D01*
X43936673Y-33640302D01*
X43840000Y-33873691D01*
X42523674Y-33873691D01*
X42503162Y-33764683D01*
X42364090Y-33548559D01*
X42151890Y-33403569D01*
X41900000Y-33352560D01*
X40400000Y-33352560D01*
X40164683Y-33396838D01*
X39948559Y-33535910D01*
X39803569Y-33748110D01*
X39752560Y-34000000D01*
X39752560Y-34900000D01*
X39796838Y-35135317D01*
X39854929Y-35225593D01*
X37555184Y-35219004D01*
X37635000Y-35026310D01*
X37635000Y-34735750D01*
X37476250Y-34577000D01*
X36377000Y-34577000D01*
X36377000Y-34597000D01*
X36123000Y-34597000D01*
X36123000Y-34577000D01*
X36103000Y-34577000D01*
X36103000Y-34323000D01*
X36123000Y-34323000D01*
X36123000Y-33523750D01*
X36377000Y-33523750D01*
X36377000Y-34323000D01*
X37476250Y-34323000D01*
X37635000Y-34164250D01*
X37635000Y-33873690D01*
X37538327Y-33640301D01*
X37359698Y-33461673D01*
X37126309Y-33365000D01*
X36535750Y-33365000D01*
X36377000Y-33523750D01*
X36123000Y-33523750D01*
X35964250Y-33365000D01*
X35373691Y-33365000D01*
X35140302Y-33461673D01*
X34961673Y-33640301D01*
X34912500Y-33759015D01*
X34863327Y-33640302D01*
X34684699Y-33461673D01*
X34451310Y-33365000D01*
X33985750Y-33365000D01*
X33827000Y-33523750D01*
X33827000Y-34623000D01*
X33847000Y-34623000D01*
X33847000Y-34877000D01*
X33827000Y-34877000D01*
X33827000Y-34897000D01*
X33573000Y-34897000D01*
X33573000Y-34877000D01*
X32598750Y-34877000D01*
X32440000Y-35035750D01*
X32440000Y-35165198D01*
X32047440Y-34772638D01*
X32047440Y-34000000D01*
X32023674Y-33873691D01*
X32440000Y-33873691D01*
X32440000Y-34464250D01*
X32598750Y-34623000D01*
X33573000Y-34623000D01*
X33573000Y-33523750D01*
X33414250Y-33365000D01*
X32948690Y-33365000D01*
X32715301Y-33461673D01*
X32536673Y-33640302D01*
X32440000Y-33873691D01*
X32023674Y-33873691D01*
X32003162Y-33764683D01*
X31864090Y-33548559D01*
X31651890Y-33403569D01*
X31400000Y-33352560D01*
X29900000Y-33352560D01*
X29664683Y-33396838D01*
X29448559Y-33535910D01*
X29303569Y-33748110D01*
X29252560Y-34000000D01*
X29252560Y-34900000D01*
X29296838Y-35135317D01*
X29335534Y-35195452D01*
X27067631Y-35188953D01*
X27135000Y-35026310D01*
X27135000Y-34735750D01*
X26976250Y-34577000D01*
X25877000Y-34577000D01*
X25877000Y-34597000D01*
X25623000Y-34597000D01*
X25623000Y-34577000D01*
X24523750Y-34577000D01*
X24365000Y-34735750D01*
X24365000Y-35026310D01*
X24429238Y-35181393D01*
X24160000Y-35180622D01*
X24160000Y-35035750D01*
X24001250Y-34877000D01*
X23027000Y-34877000D01*
X23027000Y-34897000D01*
X22773000Y-34897000D01*
X22773000Y-34877000D01*
X22753000Y-34877000D01*
X22753000Y-34623000D01*
X22773000Y-34623000D01*
X22773000Y-33523750D01*
X23027000Y-33523750D01*
X23027000Y-34623000D01*
X24001250Y-34623000D01*
X24160000Y-34464250D01*
X24160000Y-33873691D01*
X24160000Y-33873690D01*
X24365000Y-33873690D01*
X24365000Y-34164250D01*
X24523750Y-34323000D01*
X25623000Y-34323000D01*
X25623000Y-33523750D01*
X25877000Y-33523750D01*
X25877000Y-34323000D01*
X26976250Y-34323000D01*
X27135000Y-34164250D01*
X27135000Y-33873690D01*
X27038327Y-33640301D01*
X26859698Y-33461673D01*
X26626309Y-33365000D01*
X26035750Y-33365000D01*
X25877000Y-33523750D01*
X25623000Y-33523750D01*
X25464250Y-33365000D01*
X24873691Y-33365000D01*
X24640302Y-33461673D01*
X24461673Y-33640301D01*
X24365000Y-33873690D01*
X24160000Y-33873690D01*
X24063327Y-33640302D01*
X23884699Y-33461673D01*
X23651310Y-33365000D01*
X23185750Y-33365000D01*
X23027000Y-33523750D01*
X22773000Y-33523750D01*
X22614250Y-33365000D01*
X22148690Y-33365000D01*
X21915301Y-33461673D01*
X21760000Y-33616975D01*
X21760000Y-33300000D01*
X21755210Y-33275921D01*
X21758456Y-33251588D01*
X21726439Y-33131277D01*
X21702148Y-33009161D01*
X21688508Y-32988748D01*
X21682195Y-32965024D01*
X21627000Y-32892838D01*
X21627000Y-32727000D01*
X28496694Y-32727000D01*
X28609161Y-32802148D01*
X28900000Y-32860000D01*
X50713758Y-32860000D01*
X51228458Y-33565330D01*
X51103569Y-33748110D01*
X51052560Y-34000000D01*
X51052560Y-34900000D01*
X51096838Y-35135317D01*
X51175802Y-35258031D01*
X50800364Y-35256955D01*
X50750925Y-35266819D01*
X50709220Y-35295140D01*
X50681818Y-35337456D01*
X50673000Y-35383954D01*
X50673000Y-35500000D01*
X50683006Y-35549410D01*
X50711447Y-35591035D01*
X50753841Y-35618315D01*
X50800000Y-35627000D01*
X54100000Y-35627000D01*
X54149410Y-35616994D01*
X54191035Y-35588553D01*
X54218315Y-35546159D01*
X54227000Y-35500000D01*
X54227000Y-35393410D01*
X54216994Y-35344000D01*
X54188553Y-35302375D01*
X54146159Y-35275095D01*
X54100364Y-35266411D01*
X53718929Y-35265318D01*
X53796431Y-35151890D01*
X53847440Y-34900000D01*
X53847440Y-34000000D01*
X53803162Y-33764683D01*
X53664090Y-33548559D01*
X53451890Y-33403569D01*
X53200000Y-33352560D01*
X52954868Y-33352560D01*
X52498378Y-32727000D01*
X54100000Y-32727000D01*
X54149410Y-32716994D01*
X54191035Y-32688553D01*
X54218315Y-32646159D01*
X54227000Y-32600000D01*
X54227000Y-28900000D01*
X54216994Y-28850590D01*
X54188553Y-28808965D01*
X54146159Y-28781685D01*
X54100000Y-28773000D01*
X46204817Y-28773000D01*
X46189090Y-28748559D01*
X46120994Y-28702031D01*
X46263327Y-28559698D01*
X46360000Y-28326309D01*
X46360000Y-28058025D01*
X46440302Y-28138327D01*
X46673691Y-28235000D01*
X47264250Y-28235000D01*
X47423000Y-28076250D01*
X47423000Y-27277000D01*
X47677000Y-27277000D01*
X47677000Y-28076250D01*
X47835750Y-28235000D01*
X48426309Y-28235000D01*
X48659698Y-28138327D01*
X48838327Y-27959699D01*
X48935000Y-27726310D01*
X48935000Y-27435750D01*
X48776250Y-27277000D01*
X47677000Y-27277000D01*
X47423000Y-27277000D01*
X47403000Y-27277000D01*
X47403000Y-27023000D01*
X47423000Y-27023000D01*
X47423000Y-26223750D01*
X47677000Y-26223750D01*
X47677000Y-27023000D01*
X48776250Y-27023000D01*
X48935000Y-26864250D01*
X48935000Y-26573690D01*
X48838327Y-26340301D01*
X48659698Y-26161673D01*
X48426309Y-26065000D01*
X47835750Y-26065000D01*
X47677000Y-26223750D01*
X47423000Y-26223750D01*
X47264250Y-26065000D01*
X46673691Y-26065000D01*
X46440302Y-26161673D01*
X46262500Y-26339474D01*
X46084699Y-26161673D01*
X45851310Y-26065000D01*
X45385750Y-26065000D01*
X45227000Y-26223750D01*
X45227000Y-27323000D01*
X45247000Y-27323000D01*
X45247000Y-27577000D01*
X45227000Y-27577000D01*
X45227000Y-27597000D01*
X44973000Y-27597000D01*
X44973000Y-27577000D01*
X43998750Y-27577000D01*
X43840000Y-27735750D01*
X43840000Y-28326309D01*
X43936673Y-28559698D01*
X44077910Y-28700936D01*
X44023559Y-28735910D01*
X43998216Y-28773000D01*
X43777987Y-28773000D01*
X43637401Y-28562599D01*
X42547440Y-27472638D01*
X42547440Y-26700000D01*
X42523674Y-26573691D01*
X43840000Y-26573691D01*
X43840000Y-27164250D01*
X43998750Y-27323000D01*
X44973000Y-27323000D01*
X44973000Y-26223750D01*
X44814250Y-26065000D01*
X44348690Y-26065000D01*
X44115301Y-26161673D01*
X43936673Y-26340302D01*
X43840000Y-26573691D01*
X42523674Y-26573691D01*
X42503162Y-26464683D01*
X42364090Y-26248559D01*
X42151890Y-26103569D01*
X41900000Y-26052560D01*
X40400000Y-26052560D01*
X40164683Y-26096838D01*
X39948559Y-26235910D01*
X39803569Y-26448110D01*
X39752560Y-26700000D01*
X39752560Y-27600000D01*
X39796838Y-27835317D01*
X39935910Y-28051441D01*
X40148110Y-28196431D01*
X40400000Y-28247440D01*
X41172638Y-28247440D01*
X41698198Y-28773000D01*
X34804817Y-28773000D01*
X34789090Y-28748559D01*
X34720994Y-28702031D01*
X34863327Y-28559698D01*
X34960000Y-28326309D01*
X34960000Y-27955660D01*
X34961673Y-27959699D01*
X35140302Y-28138327D01*
X35373691Y-28235000D01*
X35964250Y-28235000D01*
X36123000Y-28076250D01*
X36123000Y-27277000D01*
X36377000Y-27277000D01*
X36377000Y-28076250D01*
X36535750Y-28235000D01*
X37126309Y-28235000D01*
X37359698Y-28138327D01*
X37538327Y-27959699D01*
X37635000Y-27726310D01*
X37635000Y-27435750D01*
X37476250Y-27277000D01*
X36377000Y-27277000D01*
X36123000Y-27277000D01*
X36103000Y-27277000D01*
X36103000Y-27023000D01*
X36123000Y-27023000D01*
X36123000Y-26223750D01*
X36377000Y-26223750D01*
X36377000Y-27023000D01*
X37476250Y-27023000D01*
X37635000Y-26864250D01*
X37635000Y-26573690D01*
X37538327Y-26340301D01*
X37359698Y-26161673D01*
X37126309Y-26065000D01*
X36535750Y-26065000D01*
X36377000Y-26223750D01*
X36123000Y-26223750D01*
X35964250Y-26065000D01*
X35373691Y-26065000D01*
X35140302Y-26161673D01*
X34961673Y-26340301D01*
X34912500Y-26459015D01*
X34863327Y-26340302D01*
X34684699Y-26161673D01*
X34451310Y-26065000D01*
X33985750Y-26065000D01*
X33827000Y-26223750D01*
X33827000Y-27323000D01*
X33847000Y-27323000D01*
X33847000Y-27577000D01*
X33827000Y-27577000D01*
X33827000Y-27597000D01*
X33573000Y-27597000D01*
X33573000Y-27577000D01*
X32598750Y-27577000D01*
X32440000Y-27735750D01*
X32440000Y-27865198D01*
X32047440Y-27472638D01*
X32047440Y-26700000D01*
X32023674Y-26573691D01*
X32440000Y-26573691D01*
X32440000Y-27164250D01*
X32598750Y-27323000D01*
X33573000Y-27323000D01*
X33573000Y-26223750D01*
X33414250Y-26065000D01*
X32948690Y-26065000D01*
X32715301Y-26161673D01*
X32536673Y-26340302D01*
X32440000Y-26573691D01*
X32023674Y-26573691D01*
X32003162Y-26464683D01*
X31864090Y-26248559D01*
X31651890Y-26103569D01*
X31400000Y-26052560D01*
X29900000Y-26052560D01*
X29664683Y-26096838D01*
X29448559Y-26235910D01*
X29303569Y-26448110D01*
X29252560Y-26700000D01*
X29252560Y-27600000D01*
X29296838Y-27835317D01*
X29435910Y-28051441D01*
X29648110Y-28196431D01*
X29900000Y-28247440D01*
X30672638Y-28247440D01*
X31198198Y-28773000D01*
X24004817Y-28773000D01*
X23989090Y-28748559D01*
X23920994Y-28702031D01*
X24063327Y-28559698D01*
X24160000Y-28326309D01*
X24160000Y-27735750D01*
X24001250Y-27577000D01*
X23027000Y-27577000D01*
X23027000Y-27597000D01*
X22773000Y-27597000D01*
X22773000Y-27577000D01*
X21798750Y-27577000D01*
X21640000Y-27735750D01*
X21640000Y-28326309D01*
X21736673Y-28559698D01*
X21877910Y-28700936D01*
X21823559Y-28735910D01*
X21798216Y-28773000D01*
X20627000Y-28773000D01*
X20627000Y-28200000D01*
X20616994Y-28150590D01*
X20588553Y-28108965D01*
X20546159Y-28081685D01*
X20500000Y-28073000D01*
X18855340Y-28073000D01*
X19082793Y-27654597D01*
X19097277Y-27581971D01*
X19013890Y-27435750D01*
X24365000Y-27435750D01*
X24365000Y-27726310D01*
X24461673Y-27959699D01*
X24640302Y-28138327D01*
X24873691Y-28235000D01*
X25464250Y-28235000D01*
X25623000Y-28076250D01*
X25623000Y-27277000D01*
X25877000Y-27277000D01*
X25877000Y-28076250D01*
X26035750Y-28235000D01*
X26626309Y-28235000D01*
X26859698Y-28138327D01*
X27038327Y-27959699D01*
X27135000Y-27726310D01*
X27135000Y-27435750D01*
X26976250Y-27277000D01*
X25877000Y-27277000D01*
X25623000Y-27277000D01*
X24523750Y-27277000D01*
X24365000Y-27435750D01*
X19013890Y-27435750D01*
X18974683Y-27367000D01*
X17127000Y-27367000D01*
X17127000Y-27387000D01*
X16873000Y-27387000D01*
X16873000Y-27367000D01*
X16853000Y-27367000D01*
X16853000Y-27113000D01*
X16873000Y-27113000D01*
X16873000Y-27093000D01*
X17127000Y-27093000D01*
X17127000Y-27113000D01*
X18974683Y-27113000D01*
X19097277Y-26898029D01*
X19082793Y-26825403D01*
X18945957Y-26573691D01*
X21640000Y-26573691D01*
X21640000Y-27164250D01*
X21798750Y-27323000D01*
X22773000Y-27323000D01*
X22773000Y-26223750D01*
X23027000Y-26223750D01*
X23027000Y-27323000D01*
X24001250Y-27323000D01*
X24160000Y-27164250D01*
X24160000Y-26573691D01*
X24160000Y-26573690D01*
X24365000Y-26573690D01*
X24365000Y-26864250D01*
X24523750Y-27023000D01*
X25623000Y-27023000D01*
X25623000Y-26223750D01*
X25877000Y-26223750D01*
X25877000Y-27023000D01*
X26976250Y-27023000D01*
X27135000Y-26864250D01*
X27135000Y-26573690D01*
X27038327Y-26340301D01*
X26859698Y-26161673D01*
X26626309Y-26065000D01*
X26035750Y-26065000D01*
X25877000Y-26223750D01*
X25623000Y-26223750D01*
X25464250Y-26065000D01*
X24873691Y-26065000D01*
X24640302Y-26161673D01*
X24461673Y-26340301D01*
X24365000Y-26573690D01*
X24160000Y-26573690D01*
X24063327Y-26340302D01*
X23884699Y-26161673D01*
X23651310Y-26065000D01*
X23185750Y-26065000D01*
X23027000Y-26223750D01*
X22773000Y-26223750D01*
X22614250Y-26065000D01*
X22148690Y-26065000D01*
X21915301Y-26161673D01*
X21736673Y-26340302D01*
X21640000Y-26573691D01*
X18945957Y-26573691D01*
X18822681Y-26346924D01*
X18674431Y-26227000D01*
X20200000Y-26227000D01*
X20249410Y-26216994D01*
X20291035Y-26188553D01*
X20318315Y-26146159D01*
X20327000Y-26100000D01*
X20327000Y-19535750D01*
X24365000Y-19535750D01*
X24365000Y-19826310D01*
X24461673Y-20059699D01*
X24640302Y-20238327D01*
X24873691Y-20335000D01*
X25464250Y-20335000D01*
X25623000Y-20176250D01*
X25623000Y-19377000D01*
X25877000Y-19377000D01*
X25877000Y-20176250D01*
X26035750Y-20335000D01*
X26626309Y-20335000D01*
X26859698Y-20238327D01*
X27038327Y-20059699D01*
X27135000Y-19826310D01*
X27135000Y-19535750D01*
X26976250Y-19377000D01*
X25877000Y-19377000D01*
X25623000Y-19377000D01*
X24523750Y-19377000D01*
X24365000Y-19535750D01*
X20327000Y-19535750D01*
X20327000Y-18673691D01*
X21640000Y-18673691D01*
X21640000Y-19264250D01*
X21798750Y-19423000D01*
X22773000Y-19423000D01*
X22773000Y-18323750D01*
X23027000Y-18323750D01*
X23027000Y-19423000D01*
X24001250Y-19423000D01*
X24160000Y-19264250D01*
X24160000Y-18673691D01*
X24160000Y-18673690D01*
X24365000Y-18673690D01*
X24365000Y-18964250D01*
X24523750Y-19123000D01*
X25623000Y-19123000D01*
X25623000Y-18323750D01*
X25877000Y-18323750D01*
X25877000Y-19123000D01*
X26976250Y-19123000D01*
X27135000Y-18964250D01*
X27135000Y-18673690D01*
X27038327Y-18440301D01*
X26859698Y-18261673D01*
X26626309Y-18165000D01*
X26035750Y-18165000D01*
X25877000Y-18323750D01*
X25623000Y-18323750D01*
X25464250Y-18165000D01*
X24873691Y-18165000D01*
X24640302Y-18261673D01*
X24461673Y-18440301D01*
X24365000Y-18673690D01*
X24160000Y-18673690D01*
X24063327Y-18440302D01*
X23884699Y-18261673D01*
X23651310Y-18165000D01*
X23185750Y-18165000D01*
X23027000Y-18323750D01*
X22773000Y-18323750D01*
X22614250Y-18165000D01*
X22148690Y-18165000D01*
X21915301Y-18261673D01*
X21736673Y-18440302D01*
X21640000Y-18673691D01*
X20327000Y-18673691D01*
X20327000Y-17927000D01*
X49473000Y-17927000D01*
X49473000Y-20572549D01*
X49473000Y-20572549D01*
G37*
X49473000Y-20572549D02*
X46304080Y-20561312D01*
X46360000Y-20426309D01*
X46360000Y-20158025D01*
X46440302Y-20238327D01*
X46673691Y-20335000D01*
X47264250Y-20335000D01*
X47423000Y-20176250D01*
X47423000Y-19377000D01*
X47677000Y-19377000D01*
X47677000Y-20176250D01*
X47835750Y-20335000D01*
X48426309Y-20335000D01*
X48659698Y-20238327D01*
X48838327Y-20059699D01*
X48935000Y-19826310D01*
X48935000Y-19535750D01*
X48776250Y-19377000D01*
X47677000Y-19377000D01*
X47423000Y-19377000D01*
X47403000Y-19377000D01*
X47403000Y-19123000D01*
X47423000Y-19123000D01*
X47423000Y-18323750D01*
X47677000Y-18323750D01*
X47677000Y-19123000D01*
X48776250Y-19123000D01*
X48935000Y-18964250D01*
X48935000Y-18673690D01*
X48838327Y-18440301D01*
X48659698Y-18261673D01*
X48426309Y-18165000D01*
X47835750Y-18165000D01*
X47677000Y-18323750D01*
X47423000Y-18323750D01*
X47264250Y-18165000D01*
X46673691Y-18165000D01*
X46440302Y-18261673D01*
X46262500Y-18439474D01*
X46084699Y-18261673D01*
X45851310Y-18165000D01*
X45385750Y-18165000D01*
X45227000Y-18323750D01*
X45227000Y-19423000D01*
X45247000Y-19423000D01*
X45247000Y-19677000D01*
X45227000Y-19677000D01*
X45227000Y-19697000D01*
X44973000Y-19697000D01*
X44973000Y-19677000D01*
X43998750Y-19677000D01*
X43840000Y-19835750D01*
X43840000Y-20426309D01*
X43892378Y-20552760D01*
X43526263Y-20551461D01*
X42547440Y-19572638D01*
X42547440Y-18800000D01*
X42523674Y-18673691D01*
X43840000Y-18673691D01*
X43840000Y-19264250D01*
X43998750Y-19423000D01*
X44973000Y-19423000D01*
X44973000Y-18323750D01*
X44814250Y-18165000D01*
X44348690Y-18165000D01*
X44115301Y-18261673D01*
X43936673Y-18440302D01*
X43840000Y-18673691D01*
X42523674Y-18673691D01*
X42503162Y-18564683D01*
X42364090Y-18348559D01*
X42151890Y-18203569D01*
X41900000Y-18152560D01*
X40400000Y-18152560D01*
X40164683Y-18196838D01*
X39948559Y-18335910D01*
X39803569Y-18548110D01*
X39752560Y-18800000D01*
X39752560Y-19700000D01*
X39796838Y-19935317D01*
X39935910Y-20151441D01*
X40148110Y-20296431D01*
X40400000Y-20347440D01*
X41172638Y-20347440D01*
X41369009Y-20543811D01*
X34920800Y-20520946D01*
X34960000Y-20426309D01*
X34960000Y-20055660D01*
X34961673Y-20059699D01*
X35140302Y-20238327D01*
X35373691Y-20335000D01*
X35964250Y-20335000D01*
X36123000Y-20176250D01*
X36123000Y-19377000D01*
X36377000Y-19377000D01*
X36377000Y-20176250D01*
X36535750Y-20335000D01*
X37126309Y-20335000D01*
X37359698Y-20238327D01*
X37538327Y-20059699D01*
X37635000Y-19826310D01*
X37635000Y-19535750D01*
X37476250Y-19377000D01*
X36377000Y-19377000D01*
X36123000Y-19377000D01*
X36103000Y-19377000D01*
X36103000Y-19123000D01*
X36123000Y-19123000D01*
X36123000Y-18323750D01*
X36377000Y-18323750D01*
X36377000Y-19123000D01*
X37476250Y-19123000D01*
X37635000Y-18964250D01*
X37635000Y-18673690D01*
X37538327Y-18440301D01*
X37359698Y-18261673D01*
X37126309Y-18165000D01*
X36535750Y-18165000D01*
X36377000Y-18323750D01*
X36123000Y-18323750D01*
X35964250Y-18165000D01*
X35373691Y-18165000D01*
X35140302Y-18261673D01*
X34961673Y-18440301D01*
X34912500Y-18559015D01*
X34863327Y-18440302D01*
X34684699Y-18261673D01*
X34451310Y-18165000D01*
X33985750Y-18165000D01*
X33827000Y-18323750D01*
X33827000Y-19423000D01*
X33847000Y-19423000D01*
X33847000Y-19677000D01*
X33827000Y-19677000D01*
X33827000Y-19697000D01*
X33573000Y-19697000D01*
X33573000Y-19677000D01*
X32598750Y-19677000D01*
X32440000Y-19835750D01*
X32440000Y-19965198D01*
X32047440Y-19572638D01*
X32047440Y-18800000D01*
X32023674Y-18673691D01*
X32440000Y-18673691D01*
X32440000Y-19264250D01*
X32598750Y-19423000D01*
X33573000Y-19423000D01*
X33573000Y-18323750D01*
X33414250Y-18165000D01*
X32948690Y-18165000D01*
X32715301Y-18261673D01*
X32536673Y-18440302D01*
X32440000Y-18673691D01*
X32023674Y-18673691D01*
X32003162Y-18564683D01*
X31864090Y-18348559D01*
X31651890Y-18203569D01*
X31400000Y-18152560D01*
X29900000Y-18152560D01*
X29664683Y-18196838D01*
X29448559Y-18335910D01*
X29303569Y-18548110D01*
X29252560Y-18800000D01*
X29252560Y-19700000D01*
X29296838Y-19935317D01*
X29435910Y-20151441D01*
X29648110Y-20296431D01*
X29900000Y-20347440D01*
X30672638Y-20347440D01*
X30831643Y-20506445D01*
X24136640Y-20482704D01*
X24160000Y-20426309D01*
X24160000Y-19835750D01*
X24001250Y-19677000D01*
X23027000Y-19677000D01*
X23027000Y-19697000D01*
X22773000Y-19697000D01*
X22773000Y-19677000D01*
X21798750Y-19677000D01*
X21640000Y-19835750D01*
X21640000Y-20426309D01*
X21659721Y-20473920D01*
X21436811Y-20473130D01*
X21387366Y-20482960D01*
X21345641Y-20511253D01*
X21318211Y-20553551D01*
X21309394Y-20597243D01*
X21202579Y-25297114D01*
X21211459Y-25346739D01*
X21238947Y-25388999D01*
X21280711Y-25417235D01*
X21329546Y-25427000D01*
X49752198Y-25427000D01*
X51052560Y-26727362D01*
X51052560Y-27600000D01*
X51096838Y-27835317D01*
X51235910Y-28051441D01*
X51448110Y-28196431D01*
X51700000Y-28247440D01*
X53200000Y-28247440D01*
X53435317Y-28203162D01*
X53651441Y-28064090D01*
X53796431Y-27851890D01*
X53847440Y-27600000D01*
X53847440Y-26700000D01*
X53803162Y-26464683D01*
X53664090Y-26248559D01*
X53451890Y-26103569D01*
X53200000Y-26052560D01*
X52527362Y-26052560D01*
X51901802Y-25427000D01*
X55073000Y-25427000D01*
X55073000Y-26100000D01*
X55083006Y-26149410D01*
X55111447Y-26191035D01*
X55153841Y-26218315D01*
X55200000Y-26227000D01*
X56950293Y-26227000D01*
X56777319Y-26366924D01*
X56517207Y-26845403D01*
X56502723Y-26918029D01*
X56625317Y-27133000D01*
X58473000Y-27133000D01*
X58473000Y-27113000D01*
X58727000Y-27113000D01*
X58727000Y-27133000D01*
X58747000Y-27133000D01*
X58747000Y-27387000D01*
X58727000Y-27387000D01*
X58727000Y-27407000D01*
X58473000Y-27407000D01*
X58473000Y-27387000D01*
X56625317Y-27387000D01*
X56502723Y-27601971D01*
X56517207Y-27674597D01*
X56733788Y-28073000D01*
X55700000Y-28073000D01*
X55650590Y-28083006D01*
X55608965Y-28111447D01*
X55581685Y-28153841D01*
X55573000Y-28200000D01*
X55573000Y-32600000D01*
X55583006Y-32649410D01*
X55611447Y-32691035D01*
X55653841Y-32718315D01*
X55700000Y-32727000D01*
X56273000Y-32727000D01*
X56273000Y-35272636D01*
X55700364Y-35270995D01*
X55650925Y-35280859D01*
X55609220Y-35309180D01*
X55581818Y-35351496D01*
X55573000Y-35397994D01*
X55573000Y-36453498D01*
X55564902Y-36473000D01*
X49527000Y-36473000D01*
X49527000Y-35379943D01*
X49516994Y-35330533D01*
X49488553Y-35288908D01*
X49446159Y-35261628D01*
X49400364Y-35252944D01*
X48841788Y-35251343D01*
X48935000Y-35026310D01*
X48935000Y-34735750D01*
X48776250Y-34577000D01*
X47677000Y-34577000D01*
X47677000Y-34597000D01*
X47423000Y-34597000D01*
X47423000Y-34577000D01*
X47403000Y-34577000D01*
X47403000Y-34323000D01*
X47423000Y-34323000D01*
X47423000Y-33523750D01*
X47677000Y-33523750D01*
X47677000Y-34323000D01*
X48776250Y-34323000D01*
X48935000Y-34164250D01*
X48935000Y-33873690D01*
X48838327Y-33640301D01*
X48659698Y-33461673D01*
X48426309Y-33365000D01*
X47835750Y-33365000D01*
X47677000Y-33523750D01*
X47423000Y-33523750D01*
X47264250Y-33365000D01*
X46673691Y-33365000D01*
X46440302Y-33461673D01*
X46262500Y-33639474D01*
X46084699Y-33461673D01*
X45851310Y-33365000D01*
X45385750Y-33365000D01*
X45227000Y-33523750D01*
X45227000Y-34623000D01*
X45247000Y-34623000D01*
X45247000Y-34877000D01*
X45227000Y-34877000D01*
X45227000Y-34897000D01*
X44973000Y-34897000D01*
X44973000Y-34877000D01*
X43998750Y-34877000D01*
X43840000Y-35035750D01*
X43840000Y-35237012D01*
X43009434Y-35234632D01*
X42547440Y-34772638D01*
X42547440Y-34000000D01*
X42523674Y-33873691D01*
X43840000Y-33873691D01*
X43840000Y-34464250D01*
X43998750Y-34623000D01*
X44973000Y-34623000D01*
X44973000Y-33523750D01*
X44814250Y-33365000D01*
X44348690Y-33365000D01*
X44115301Y-33461673D01*
X43936673Y-33640302D01*
X43840000Y-33873691D01*
X42523674Y-33873691D01*
X42503162Y-33764683D01*
X42364090Y-33548559D01*
X42151890Y-33403569D01*
X41900000Y-33352560D01*
X40400000Y-33352560D01*
X40164683Y-33396838D01*
X39948559Y-33535910D01*
X39803569Y-33748110D01*
X39752560Y-34000000D01*
X39752560Y-34900000D01*
X39796838Y-35135317D01*
X39854929Y-35225593D01*
X37555184Y-35219004D01*
X37635000Y-35026310D01*
X37635000Y-34735750D01*
X37476250Y-34577000D01*
X36377000Y-34577000D01*
X36377000Y-34597000D01*
X36123000Y-34597000D01*
X36123000Y-34577000D01*
X36103000Y-34577000D01*
X36103000Y-34323000D01*
X36123000Y-34323000D01*
X36123000Y-33523750D01*
X36377000Y-33523750D01*
X36377000Y-34323000D01*
X37476250Y-34323000D01*
X37635000Y-34164250D01*
X37635000Y-33873690D01*
X37538327Y-33640301D01*
X37359698Y-33461673D01*
X37126309Y-33365000D01*
X36535750Y-33365000D01*
X36377000Y-33523750D01*
X36123000Y-33523750D01*
X35964250Y-33365000D01*
X35373691Y-33365000D01*
X35140302Y-33461673D01*
X34961673Y-33640301D01*
X34912500Y-33759015D01*
X34863327Y-33640302D01*
X34684699Y-33461673D01*
X34451310Y-33365000D01*
X33985750Y-33365000D01*
X33827000Y-33523750D01*
X33827000Y-34623000D01*
X33847000Y-34623000D01*
X33847000Y-34877000D01*
X33827000Y-34877000D01*
X33827000Y-34897000D01*
X33573000Y-34897000D01*
X33573000Y-34877000D01*
X32598750Y-34877000D01*
X32440000Y-35035750D01*
X32440000Y-35165198D01*
X32047440Y-34772638D01*
X32047440Y-34000000D01*
X32023674Y-33873691D01*
X32440000Y-33873691D01*
X32440000Y-34464250D01*
X32598750Y-34623000D01*
X33573000Y-34623000D01*
X33573000Y-33523750D01*
X33414250Y-33365000D01*
X32948690Y-33365000D01*
X32715301Y-33461673D01*
X32536673Y-33640302D01*
X32440000Y-33873691D01*
X32023674Y-33873691D01*
X32003162Y-33764683D01*
X31864090Y-33548559D01*
X31651890Y-33403569D01*
X31400000Y-33352560D01*
X29900000Y-33352560D01*
X29664683Y-33396838D01*
X29448559Y-33535910D01*
X29303569Y-33748110D01*
X29252560Y-34000000D01*
X29252560Y-34900000D01*
X29296838Y-35135317D01*
X29335534Y-35195452D01*
X27067631Y-35188953D01*
X27135000Y-35026310D01*
X27135000Y-34735750D01*
X26976250Y-34577000D01*
X25877000Y-34577000D01*
X25877000Y-34597000D01*
X25623000Y-34597000D01*
X25623000Y-34577000D01*
X24523750Y-34577000D01*
X24365000Y-34735750D01*
X24365000Y-35026310D01*
X24429238Y-35181393D01*
X24160000Y-35180622D01*
X24160000Y-35035750D01*
X24001250Y-34877000D01*
X23027000Y-34877000D01*
X23027000Y-34897000D01*
X22773000Y-34897000D01*
X22773000Y-34877000D01*
X22753000Y-34877000D01*
X22753000Y-34623000D01*
X22773000Y-34623000D01*
X22773000Y-33523750D01*
X23027000Y-33523750D01*
X23027000Y-34623000D01*
X24001250Y-34623000D01*
X24160000Y-34464250D01*
X24160000Y-33873691D01*
X24160000Y-33873690D01*
X24365000Y-33873690D01*
X24365000Y-34164250D01*
X24523750Y-34323000D01*
X25623000Y-34323000D01*
X25623000Y-33523750D01*
X25877000Y-33523750D01*
X25877000Y-34323000D01*
X26976250Y-34323000D01*
X27135000Y-34164250D01*
X27135000Y-33873690D01*
X27038327Y-33640301D01*
X26859698Y-33461673D01*
X26626309Y-33365000D01*
X26035750Y-33365000D01*
X25877000Y-33523750D01*
X25623000Y-33523750D01*
X25464250Y-33365000D01*
X24873691Y-33365000D01*
X24640302Y-33461673D01*
X24461673Y-33640301D01*
X24365000Y-33873690D01*
X24160000Y-33873690D01*
X24063327Y-33640302D01*
X23884699Y-33461673D01*
X23651310Y-33365000D01*
X23185750Y-33365000D01*
X23027000Y-33523750D01*
X22773000Y-33523750D01*
X22614250Y-33365000D01*
X22148690Y-33365000D01*
X21915301Y-33461673D01*
X21760000Y-33616975D01*
X21760000Y-33300000D01*
X21755210Y-33275921D01*
X21758456Y-33251588D01*
X21726439Y-33131277D01*
X21702148Y-33009161D01*
X21688508Y-32988748D01*
X21682195Y-32965024D01*
X21627000Y-32892838D01*
X21627000Y-32727000D01*
X28496694Y-32727000D01*
X28609161Y-32802148D01*
X28900000Y-32860000D01*
X50713758Y-32860000D01*
X51228458Y-33565330D01*
X51103569Y-33748110D01*
X51052560Y-34000000D01*
X51052560Y-34900000D01*
X51096838Y-35135317D01*
X51175802Y-35258031D01*
X50800364Y-35256955D01*
X50750925Y-35266819D01*
X50709220Y-35295140D01*
X50681818Y-35337456D01*
X50673000Y-35383954D01*
X50673000Y-35500000D01*
X50683006Y-35549410D01*
X50711447Y-35591035D01*
X50753841Y-35618315D01*
X50800000Y-35627000D01*
X54100000Y-35627000D01*
X54149410Y-35616994D01*
X54191035Y-35588553D01*
X54218315Y-35546159D01*
X54227000Y-35500000D01*
X54227000Y-35393410D01*
X54216994Y-35344000D01*
X54188553Y-35302375D01*
X54146159Y-35275095D01*
X54100364Y-35266411D01*
X53718929Y-35265318D01*
X53796431Y-35151890D01*
X53847440Y-34900000D01*
X53847440Y-34000000D01*
X53803162Y-33764683D01*
X53664090Y-33548559D01*
X53451890Y-33403569D01*
X53200000Y-33352560D01*
X52954868Y-33352560D01*
X52498378Y-32727000D01*
X54100000Y-32727000D01*
X54149410Y-32716994D01*
X54191035Y-32688553D01*
X54218315Y-32646159D01*
X54227000Y-32600000D01*
X54227000Y-28900000D01*
X54216994Y-28850590D01*
X54188553Y-28808965D01*
X54146159Y-28781685D01*
X54100000Y-28773000D01*
X46204817Y-28773000D01*
X46189090Y-28748559D01*
X46120994Y-28702031D01*
X46263327Y-28559698D01*
X46360000Y-28326309D01*
X46360000Y-28058025D01*
X46440302Y-28138327D01*
X46673691Y-28235000D01*
X47264250Y-28235000D01*
X47423000Y-28076250D01*
X47423000Y-27277000D01*
X47677000Y-27277000D01*
X47677000Y-28076250D01*
X47835750Y-28235000D01*
X48426309Y-28235000D01*
X48659698Y-28138327D01*
X48838327Y-27959699D01*
X48935000Y-27726310D01*
X48935000Y-27435750D01*
X48776250Y-27277000D01*
X47677000Y-27277000D01*
X47423000Y-27277000D01*
X47403000Y-27277000D01*
X47403000Y-27023000D01*
X47423000Y-27023000D01*
X47423000Y-26223750D01*
X47677000Y-26223750D01*
X47677000Y-27023000D01*
X48776250Y-27023000D01*
X48935000Y-26864250D01*
X48935000Y-26573690D01*
X48838327Y-26340301D01*
X48659698Y-26161673D01*
X48426309Y-26065000D01*
X47835750Y-26065000D01*
X47677000Y-26223750D01*
X47423000Y-26223750D01*
X47264250Y-26065000D01*
X46673691Y-26065000D01*
X46440302Y-26161673D01*
X46262500Y-26339474D01*
X46084699Y-26161673D01*
X45851310Y-26065000D01*
X45385750Y-26065000D01*
X45227000Y-26223750D01*
X45227000Y-27323000D01*
X45247000Y-27323000D01*
X45247000Y-27577000D01*
X45227000Y-27577000D01*
X45227000Y-27597000D01*
X44973000Y-27597000D01*
X44973000Y-27577000D01*
X43998750Y-27577000D01*
X43840000Y-27735750D01*
X43840000Y-28326309D01*
X43936673Y-28559698D01*
X44077910Y-28700936D01*
X44023559Y-28735910D01*
X43998216Y-28773000D01*
X43777987Y-28773000D01*
X43637401Y-28562599D01*
X42547440Y-27472638D01*
X42547440Y-26700000D01*
X42523674Y-26573691D01*
X43840000Y-26573691D01*
X43840000Y-27164250D01*
X43998750Y-27323000D01*
X44973000Y-27323000D01*
X44973000Y-26223750D01*
X44814250Y-26065000D01*
X44348690Y-26065000D01*
X44115301Y-26161673D01*
X43936673Y-26340302D01*
X43840000Y-26573691D01*
X42523674Y-26573691D01*
X42503162Y-26464683D01*
X42364090Y-26248559D01*
X42151890Y-26103569D01*
X41900000Y-26052560D01*
X40400000Y-26052560D01*
X40164683Y-26096838D01*
X39948559Y-26235910D01*
X39803569Y-26448110D01*
X39752560Y-26700000D01*
X39752560Y-27600000D01*
X39796838Y-27835317D01*
X39935910Y-28051441D01*
X40148110Y-28196431D01*
X40400000Y-28247440D01*
X41172638Y-28247440D01*
X41698198Y-28773000D01*
X34804817Y-28773000D01*
X34789090Y-28748559D01*
X34720994Y-28702031D01*
X34863327Y-28559698D01*
X34960000Y-28326309D01*
X34960000Y-27955660D01*
X34961673Y-27959699D01*
X35140302Y-28138327D01*
X35373691Y-28235000D01*
X35964250Y-28235000D01*
X36123000Y-28076250D01*
X36123000Y-27277000D01*
X36377000Y-27277000D01*
X36377000Y-28076250D01*
X36535750Y-28235000D01*
X37126309Y-28235000D01*
X37359698Y-28138327D01*
X37538327Y-27959699D01*
X37635000Y-27726310D01*
X37635000Y-27435750D01*
X37476250Y-27277000D01*
X36377000Y-27277000D01*
X36123000Y-27277000D01*
X36103000Y-27277000D01*
X36103000Y-27023000D01*
X36123000Y-27023000D01*
X36123000Y-26223750D01*
X36377000Y-26223750D01*
X36377000Y-27023000D01*
X37476250Y-27023000D01*
X37635000Y-26864250D01*
X37635000Y-26573690D01*
X37538327Y-26340301D01*
X37359698Y-26161673D01*
X37126309Y-26065000D01*
X36535750Y-26065000D01*
X36377000Y-26223750D01*
X36123000Y-26223750D01*
X35964250Y-26065000D01*
X35373691Y-26065000D01*
X35140302Y-26161673D01*
X34961673Y-26340301D01*
X34912500Y-26459015D01*
X34863327Y-26340302D01*
X34684699Y-26161673D01*
X34451310Y-26065000D01*
X33985750Y-26065000D01*
X33827000Y-26223750D01*
X33827000Y-27323000D01*
X33847000Y-27323000D01*
X33847000Y-27577000D01*
X33827000Y-27577000D01*
X33827000Y-27597000D01*
X33573000Y-27597000D01*
X33573000Y-27577000D01*
X32598750Y-27577000D01*
X32440000Y-27735750D01*
X32440000Y-27865198D01*
X32047440Y-27472638D01*
X32047440Y-26700000D01*
X32023674Y-26573691D01*
X32440000Y-26573691D01*
X32440000Y-27164250D01*
X32598750Y-27323000D01*
X33573000Y-27323000D01*
X33573000Y-26223750D01*
X33414250Y-26065000D01*
X32948690Y-26065000D01*
X32715301Y-26161673D01*
X32536673Y-26340302D01*
X32440000Y-26573691D01*
X32023674Y-26573691D01*
X32003162Y-26464683D01*
X31864090Y-26248559D01*
X31651890Y-26103569D01*
X31400000Y-26052560D01*
X29900000Y-26052560D01*
X29664683Y-26096838D01*
X29448559Y-26235910D01*
X29303569Y-26448110D01*
X29252560Y-26700000D01*
X29252560Y-27600000D01*
X29296838Y-27835317D01*
X29435910Y-28051441D01*
X29648110Y-28196431D01*
X29900000Y-28247440D01*
X30672638Y-28247440D01*
X31198198Y-28773000D01*
X24004817Y-28773000D01*
X23989090Y-28748559D01*
X23920994Y-28702031D01*
X24063327Y-28559698D01*
X24160000Y-28326309D01*
X24160000Y-27735750D01*
X24001250Y-27577000D01*
X23027000Y-27577000D01*
X23027000Y-27597000D01*
X22773000Y-27597000D01*
X22773000Y-27577000D01*
X21798750Y-27577000D01*
X21640000Y-27735750D01*
X21640000Y-28326309D01*
X21736673Y-28559698D01*
X21877910Y-28700936D01*
X21823559Y-28735910D01*
X21798216Y-28773000D01*
X20627000Y-28773000D01*
X20627000Y-28200000D01*
X20616994Y-28150590D01*
X20588553Y-28108965D01*
X20546159Y-28081685D01*
X20500000Y-28073000D01*
X18855340Y-28073000D01*
X19082793Y-27654597D01*
X19097277Y-27581971D01*
X19013890Y-27435750D01*
X24365000Y-27435750D01*
X24365000Y-27726310D01*
X24461673Y-27959699D01*
X24640302Y-28138327D01*
X24873691Y-28235000D01*
X25464250Y-28235000D01*
X25623000Y-28076250D01*
X25623000Y-27277000D01*
X25877000Y-27277000D01*
X25877000Y-28076250D01*
X26035750Y-28235000D01*
X26626309Y-28235000D01*
X26859698Y-28138327D01*
X27038327Y-27959699D01*
X27135000Y-27726310D01*
X27135000Y-27435750D01*
X26976250Y-27277000D01*
X25877000Y-27277000D01*
X25623000Y-27277000D01*
X24523750Y-27277000D01*
X24365000Y-27435750D01*
X19013890Y-27435750D01*
X18974683Y-27367000D01*
X17127000Y-27367000D01*
X17127000Y-27387000D01*
X16873000Y-27387000D01*
X16873000Y-27367000D01*
X16853000Y-27367000D01*
X16853000Y-27113000D01*
X16873000Y-27113000D01*
X16873000Y-27093000D01*
X17127000Y-27093000D01*
X17127000Y-27113000D01*
X18974683Y-27113000D01*
X19097277Y-26898029D01*
X19082793Y-26825403D01*
X18945957Y-26573691D01*
X21640000Y-26573691D01*
X21640000Y-27164250D01*
X21798750Y-27323000D01*
X22773000Y-27323000D01*
X22773000Y-26223750D01*
X23027000Y-26223750D01*
X23027000Y-27323000D01*
X24001250Y-27323000D01*
X24160000Y-27164250D01*
X24160000Y-26573691D01*
X24160000Y-26573690D01*
X24365000Y-26573690D01*
X24365000Y-26864250D01*
X24523750Y-27023000D01*
X25623000Y-27023000D01*
X25623000Y-26223750D01*
X25877000Y-26223750D01*
X25877000Y-27023000D01*
X26976250Y-27023000D01*
X27135000Y-26864250D01*
X27135000Y-26573690D01*
X27038327Y-26340301D01*
X26859698Y-26161673D01*
X26626309Y-26065000D01*
X26035750Y-26065000D01*
X25877000Y-26223750D01*
X25623000Y-26223750D01*
X25464250Y-26065000D01*
X24873691Y-26065000D01*
X24640302Y-26161673D01*
X24461673Y-26340301D01*
X24365000Y-26573690D01*
X24160000Y-26573690D01*
X24063327Y-26340302D01*
X23884699Y-26161673D01*
X23651310Y-26065000D01*
X23185750Y-26065000D01*
X23027000Y-26223750D01*
X22773000Y-26223750D01*
X22614250Y-26065000D01*
X22148690Y-26065000D01*
X21915301Y-26161673D01*
X21736673Y-26340302D01*
X21640000Y-26573691D01*
X18945957Y-26573691D01*
X18822681Y-26346924D01*
X18674431Y-26227000D01*
X20200000Y-26227000D01*
X20249410Y-26216994D01*
X20291035Y-26188553D01*
X20318315Y-26146159D01*
X20327000Y-26100000D01*
X20327000Y-19535750D01*
X24365000Y-19535750D01*
X24365000Y-19826310D01*
X24461673Y-20059699D01*
X24640302Y-20238327D01*
X24873691Y-20335000D01*
X25464250Y-20335000D01*
X25623000Y-20176250D01*
X25623000Y-19377000D01*
X25877000Y-19377000D01*
X25877000Y-20176250D01*
X26035750Y-20335000D01*
X26626309Y-20335000D01*
X26859698Y-20238327D01*
X27038327Y-20059699D01*
X27135000Y-19826310D01*
X27135000Y-19535750D01*
X26976250Y-19377000D01*
X25877000Y-19377000D01*
X25623000Y-19377000D01*
X24523750Y-19377000D01*
X24365000Y-19535750D01*
X20327000Y-19535750D01*
X20327000Y-18673691D01*
X21640000Y-18673691D01*
X21640000Y-19264250D01*
X21798750Y-19423000D01*
X22773000Y-19423000D01*
X22773000Y-18323750D01*
X23027000Y-18323750D01*
X23027000Y-19423000D01*
X24001250Y-19423000D01*
X24160000Y-19264250D01*
X24160000Y-18673691D01*
X24160000Y-18673690D01*
X24365000Y-18673690D01*
X24365000Y-18964250D01*
X24523750Y-19123000D01*
X25623000Y-19123000D01*
X25623000Y-18323750D01*
X25877000Y-18323750D01*
X25877000Y-19123000D01*
X26976250Y-19123000D01*
X27135000Y-18964250D01*
X27135000Y-18673690D01*
X27038327Y-18440301D01*
X26859698Y-18261673D01*
X26626309Y-18165000D01*
X26035750Y-18165000D01*
X25877000Y-18323750D01*
X25623000Y-18323750D01*
X25464250Y-18165000D01*
X24873691Y-18165000D01*
X24640302Y-18261673D01*
X24461673Y-18440301D01*
X24365000Y-18673690D01*
X24160000Y-18673690D01*
X24063327Y-18440302D01*
X23884699Y-18261673D01*
X23651310Y-18165000D01*
X23185750Y-18165000D01*
X23027000Y-18323750D01*
X22773000Y-18323750D01*
X22614250Y-18165000D01*
X22148690Y-18165000D01*
X21915301Y-18261673D01*
X21736673Y-18440302D01*
X21640000Y-18673691D01*
X20327000Y-18673691D01*
X20327000Y-17927000D01*
X49473000Y-17927000D01*
X49473000Y-20572549D01*
M02*
