M48
;DRILL file {KiCad 4.0.5} date Saturday, 18. February 2017 'u29' 22:29:43
;FORMAT={-:-/ absolute / metric / decimal}
FMAT,2
METRIC,TZ
T1C0.400
T2C1.000
%
G90
G05
M71
T1
X19.5Y-24.7
X22.8Y-23.4
X22.8Y-31.3
X24.7Y-36.3
X28.9Y-22.6
X29.1Y-37.8
X29.2Y-30.4
X35.2Y-36.5
X35.3Y-21.2
X35.4Y-28.9
X39.3Y-37.8
X39.6Y-22.7
X39.7Y-30.5
X46.7Y-29.
X46.8Y-21.2
X46.8Y-36.4
X50.8Y-22.6
X50.9Y-30.4
X50.9Y-37.8
X56.3Y-29.8
T2
X17.Y-24.7
X17.Y-27.24
X17.Y-29.78
X58.6Y-24.72
X58.6Y-27.26
X58.6Y-29.8
T0
M30
