G04 #@! TF.FileFunction,Soldermask,Top*
%FSLAX46Y46*%
G04 Gerber Fmt 4.6, Leading zero omitted, Abs format (unit mm)*
G04 Created by KiCad (PCBNEW 4.0.5) date Saturday, 18. February 2017 'u33' 22:33:09*
%MOMM*%
%LPD*%
G01*
G04 APERTURE LIST*
%ADD10C,0.100000*%
%ADD11O,3.410000X1.910000*%
%ADD12R,1.900000X1.300000*%
%ADD13R,1.650000X1.900000*%
%ADD14C,3.600000*%
G04 APERTURE END LIST*
D10*
D11*
X58600000Y-29800000D03*
X58600000Y-27260000D03*
X58600000Y-24720000D03*
D12*
X47550000Y-22550000D03*
X47550000Y-19250000D03*
X52450000Y-19250000D03*
X52450000Y-22550000D03*
X47550000Y-30450000D03*
X47550000Y-27150000D03*
X52450000Y-27150000D03*
X52450000Y-30450000D03*
D13*
X45100000Y-29950000D03*
X45100000Y-27450000D03*
X45100000Y-37250000D03*
X45100000Y-34750000D03*
X33700000Y-37250000D03*
X33700000Y-34750000D03*
X22900000Y-37250000D03*
X22900000Y-34750000D03*
X33700000Y-29950000D03*
X33700000Y-27450000D03*
X22900000Y-29950000D03*
X22900000Y-27450000D03*
X45100000Y-22050000D03*
X45100000Y-19550000D03*
X33700000Y-22050000D03*
X33700000Y-19550000D03*
X22900000Y-22050000D03*
X22900000Y-19550000D03*
D12*
X25750000Y-22550000D03*
X25750000Y-19250000D03*
X30650000Y-19250000D03*
X30650000Y-22550000D03*
X25750000Y-37750000D03*
X25750000Y-34450000D03*
X30650000Y-34450000D03*
X30650000Y-37750000D03*
X25750000Y-30450000D03*
X25750000Y-27150000D03*
X30650000Y-27150000D03*
X30650000Y-30450000D03*
X36250000Y-22550000D03*
X36250000Y-19250000D03*
X41150000Y-19250000D03*
X41150000Y-22550000D03*
X36250000Y-37750000D03*
X36250000Y-34450000D03*
X41150000Y-34450000D03*
X41150000Y-37750000D03*
X36250000Y-30450000D03*
X36250000Y-27150000D03*
X41150000Y-27150000D03*
X41150000Y-30450000D03*
X47550000Y-37750000D03*
X47550000Y-34450000D03*
X52450000Y-34450000D03*
X52450000Y-37750000D03*
D11*
X17000000Y-24700000D03*
X17000000Y-27240000D03*
X17000000Y-29780000D03*
D14*
X57600000Y-18600000D03*
X17300000Y-18600000D03*
X17500000Y-37200000D03*
X57600000Y-37400000D03*
M02*
