M48
;DRILL file {KiCad 4.0.5-e0-6337~49~ubuntu15.04.1} date Fri Feb 24 10:44:03 2017
;FORMAT={-:-/ absolute / metric / decimal}
FMAT,2
METRIC,TZ
T1C0.400
T2C1.000
%
G90
G05
M71
T1
X22.9Y-22.05
X22.9Y-30.
X22.9Y-37.3
X30.65Y-37.75
X30.7Y-22.6
X30.8Y-30.5
X33.7Y-22.05
X33.7Y-29.95
X33.8Y-37.3
X41.15Y-30.45
X41.15Y-37.75
X41.2Y-22.7
X45.2Y-22.1
X45.2Y-30.1
X45.3Y-37.2
X52.45Y-22.55
X52.45Y-30.45
X52.45Y-37.75
T2
X17.Y-24.7
X17.Y-27.24
X17.Y-29.78
X58.6Y-24.72
X58.6Y-27.26
X58.6Y-29.8
T0
M30
