G04 #@! TF.FileFunction,Copper,L1,Top,Signal*
%FSLAX46Y46*%
G04 Gerber Fmt 4.6, Leading zero omitted, Abs format (unit mm)*
G04 Created by KiCad (PCBNEW 4.0.5) date Saturday, 18. February 2017 'u33' 22:33:09*
%MOMM*%
%LPD*%
G01*
G04 APERTURE LIST*
%ADD10C,0.100000*%
%ADD11O,3.010000X1.510000*%
%ADD12R,1.500000X0.900000*%
%ADD13R,1.250000X1.500000*%
%ADD14C,0.600000*%
%ADD15C,0.250000*%
%ADD16C,0.400000*%
G04 APERTURE END LIST*
D10*
D11*
X58600000Y-29800000D03*
X58600000Y-27260000D03*
X58600000Y-24720000D03*
D12*
X47550000Y-22550000D03*
X47550000Y-19250000D03*
X52450000Y-19250000D03*
X52450000Y-22550000D03*
X47550000Y-30450000D03*
X47550000Y-27150000D03*
X52450000Y-27150000D03*
X52450000Y-30450000D03*
D13*
X45100000Y-29950000D03*
X45100000Y-27450000D03*
X45100000Y-37250000D03*
X45100000Y-34750000D03*
X33700000Y-37250000D03*
X33700000Y-34750000D03*
X22900000Y-37250000D03*
X22900000Y-34750000D03*
X33700000Y-29950000D03*
X33700000Y-27450000D03*
X22900000Y-29950000D03*
X22900000Y-27450000D03*
X45100000Y-22050000D03*
X45100000Y-19550000D03*
X33700000Y-22050000D03*
X33700000Y-19550000D03*
X22900000Y-22050000D03*
X22900000Y-19550000D03*
D12*
X25750000Y-22550000D03*
X25750000Y-19250000D03*
X30650000Y-19250000D03*
X30650000Y-22550000D03*
X25750000Y-37750000D03*
X25750000Y-34450000D03*
X30650000Y-34450000D03*
X30650000Y-37750000D03*
X25750000Y-30450000D03*
X25750000Y-27150000D03*
X30650000Y-27150000D03*
X30650000Y-30450000D03*
X36250000Y-22550000D03*
X36250000Y-19250000D03*
X41150000Y-19250000D03*
X41150000Y-22550000D03*
X36250000Y-37750000D03*
X36250000Y-34450000D03*
X41150000Y-34450000D03*
X41150000Y-37750000D03*
X36250000Y-30450000D03*
X36250000Y-27150000D03*
X41150000Y-27150000D03*
X41150000Y-30450000D03*
X47550000Y-37750000D03*
X47550000Y-34450000D03*
X52450000Y-34450000D03*
X52450000Y-37750000D03*
D11*
X17000000Y-24700000D03*
X17000000Y-27240000D03*
X17000000Y-29780000D03*
D14*
X29100000Y-37800000D03*
X46800000Y-36400000D03*
X46700000Y-29000000D03*
X46800000Y-21200000D03*
X35300000Y-21200000D03*
X28900000Y-22600000D03*
X19500000Y-24700000D03*
X22800000Y-23400000D03*
X35200000Y-36500000D03*
X24700000Y-36300000D03*
X22800000Y-31300000D03*
X29200000Y-30400000D03*
X35400000Y-28900000D03*
X39700000Y-30500000D03*
X39300000Y-37800000D03*
X50900000Y-37800000D03*
X50900000Y-30400000D03*
X56300000Y-29800000D03*
X50800000Y-22600000D03*
X39600000Y-22700000D03*
D15*
X52450000Y-29850000D02*
X52550000Y-29850000D01*
X30650000Y-37750000D02*
X29150000Y-37750000D01*
X29150000Y-37750000D02*
X29100000Y-37800000D01*
X45100000Y-37250000D02*
X45950000Y-37250000D01*
X45950000Y-37250000D02*
X46800000Y-36400000D01*
X45100000Y-29950000D02*
X45750000Y-29950000D01*
X45750000Y-29950000D02*
X46700000Y-29000000D01*
X45100000Y-22050000D02*
X45950000Y-22050000D01*
X45950000Y-22050000D02*
X46800000Y-21200000D01*
X33700000Y-22050000D02*
X34450000Y-22050000D01*
X34450000Y-22050000D02*
X35300000Y-21200000D01*
X30650000Y-22550000D02*
X28950000Y-22550000D01*
X28950000Y-22550000D02*
X28900000Y-22600000D01*
X17000000Y-24700000D02*
X19500000Y-24700000D01*
X22900000Y-22050000D02*
X22900000Y-23300000D01*
X22900000Y-23300000D02*
X22800000Y-23400000D01*
X33700000Y-37250000D02*
X34450000Y-37250000D01*
X34450000Y-37250000D02*
X35200000Y-36500000D01*
X22900000Y-37250000D02*
X23750000Y-37250000D01*
X23750000Y-37250000D02*
X24700000Y-36300000D01*
X22900000Y-29950000D02*
X22900000Y-31200000D01*
X22900000Y-31200000D02*
X22800000Y-31300000D01*
X30650000Y-30450000D02*
X29250000Y-30450000D01*
X29250000Y-30450000D02*
X29200000Y-30400000D01*
X33700000Y-29950000D02*
X34350000Y-29950000D01*
X34350000Y-29950000D02*
X35400000Y-28900000D01*
X41150000Y-30450000D02*
X39750000Y-30450000D01*
X39750000Y-30450000D02*
X39700000Y-30500000D01*
X41150000Y-37750000D02*
X39350000Y-37750000D01*
X39350000Y-37750000D02*
X39300000Y-37800000D01*
X52450000Y-37750000D02*
X50950000Y-37750000D01*
X50950000Y-37750000D02*
X50900000Y-37800000D01*
X52450000Y-30450000D02*
X50950000Y-30450000D01*
X50950000Y-30450000D02*
X50900000Y-30400000D01*
X58600000Y-29800000D02*
X56300000Y-29800000D01*
X52450000Y-22550000D02*
X50850000Y-22550000D01*
X50850000Y-22550000D02*
X50800000Y-22600000D01*
X41150000Y-22550000D02*
X39750000Y-22550000D01*
X39750000Y-22550000D02*
X39600000Y-22700000D01*
D16*
X33700000Y-19550000D02*
X33550000Y-19550000D01*
X33550000Y-19550000D02*
X31500000Y-17800000D01*
X27400000Y-17800000D02*
X25750000Y-19250000D01*
X31500000Y-17800000D02*
X27400000Y-17800000D01*
X45100000Y-19550000D02*
X45050000Y-19550000D01*
X45050000Y-19550000D02*
X43300000Y-17800000D01*
X37700000Y-17800000D02*
X36250000Y-19250000D01*
X43300000Y-17800000D02*
X37700000Y-17800000D01*
X33700000Y-27450000D02*
X33700000Y-27300000D01*
X33700000Y-27300000D02*
X32000000Y-25600000D01*
X27300000Y-25600000D02*
X25750000Y-27150000D01*
X32000000Y-25600000D02*
X27300000Y-25600000D01*
X45100000Y-27450000D02*
X45100000Y-26800000D01*
X45100000Y-26800000D02*
X44000000Y-25700000D01*
X37700000Y-25700000D02*
X36250000Y-27150000D01*
X44000000Y-25700000D02*
X37700000Y-25700000D01*
X25750000Y-34450000D02*
X26250000Y-34450000D01*
X26250000Y-34450000D02*
X27400000Y-33100000D01*
X32300000Y-33100000D02*
X33700000Y-34750000D01*
X27400000Y-33100000D02*
X32300000Y-33100000D01*
X22900000Y-27450000D02*
X17210000Y-27450000D01*
X17210000Y-27450000D02*
X17000000Y-27240000D01*
X45100000Y-34750000D02*
X44124998Y-34750000D01*
X37400000Y-33100000D02*
X36250000Y-34450000D01*
X42600000Y-33100000D02*
X37400000Y-33100000D01*
X44124998Y-34750000D02*
X42600000Y-33100000D01*
X54700000Y-28900000D02*
X54700000Y-34900000D01*
X49200000Y-36100000D02*
X47550000Y-34450000D01*
X53500000Y-36100000D02*
X49200000Y-36100000D01*
X54700000Y-34900000D02*
X53500000Y-36100000D01*
X56540000Y-27260000D02*
X56260000Y-27260000D01*
X49100000Y-20800000D02*
X47550000Y-19250000D01*
X53500000Y-20800000D02*
X49100000Y-20800000D01*
X54300000Y-21600000D02*
X53500000Y-20800000D01*
X54300000Y-25300000D02*
X54300000Y-21600000D01*
X56260000Y-27260000D02*
X54300000Y-25300000D01*
X58600000Y-27260000D02*
X56540000Y-27260000D01*
X49300000Y-28900000D02*
X47550000Y-27150000D01*
X54900000Y-28900000D02*
X54700000Y-28900000D01*
X54700000Y-28900000D02*
X49300000Y-28900000D01*
X56540000Y-27260000D02*
X54900000Y-28900000D01*
X25750000Y-19250000D02*
X23200000Y-19250000D01*
X23200000Y-19250000D02*
X22900000Y-19550000D01*
X25750000Y-27150000D02*
X23200000Y-27150000D01*
X23200000Y-27150000D02*
X22900000Y-27450000D01*
X25750000Y-34450000D02*
X23200000Y-34450000D01*
X23200000Y-34450000D02*
X22900000Y-34750000D01*
X36250000Y-34450000D02*
X34000000Y-34450000D01*
X34000000Y-34450000D02*
X33700000Y-34750000D01*
X36250000Y-27150000D02*
X34000000Y-27150000D01*
X34000000Y-27150000D02*
X33700000Y-27450000D01*
X36250000Y-19250000D02*
X34000000Y-19250000D01*
X34000000Y-19250000D02*
X33700000Y-19550000D01*
X47550000Y-19250000D02*
X45400000Y-19250000D01*
X45400000Y-19250000D02*
X45100000Y-19550000D01*
X47550000Y-27150000D02*
X45400000Y-27150000D01*
X45400000Y-27150000D02*
X45100000Y-27450000D01*
X47550000Y-34450000D02*
X45400000Y-34450000D01*
X45400000Y-34450000D02*
X45100000Y-34750000D01*
X23200000Y-19150000D02*
X22900000Y-19450000D01*
X23600000Y-34950000D02*
X23100000Y-35450000D01*
X33900000Y-34750000D02*
X33600000Y-35050000D01*
X33900000Y-19150000D02*
X33500000Y-19550000D01*
X45300000Y-18950000D02*
X44900000Y-19350000D01*
D15*
X25750000Y-22550000D02*
X27350000Y-22550000D01*
X49800000Y-24400000D02*
X52450000Y-27050000D01*
X29200000Y-24400000D02*
X49800000Y-24400000D01*
X27350000Y-22550000D02*
X29200000Y-24400000D01*
X52450000Y-27050000D02*
X52450000Y-27150000D01*
X36250000Y-22550000D02*
X35550000Y-22550000D01*
X35550000Y-22550000D02*
X34600000Y-23500000D01*
X34600000Y-23500000D02*
X32900000Y-23500000D01*
X32900000Y-23500000D02*
X32100000Y-22700000D01*
X32100000Y-22700000D02*
X32100000Y-20700000D01*
X32100000Y-20700000D02*
X30650000Y-19250000D01*
X25750000Y-37750000D02*
X25250000Y-37750000D01*
X25250000Y-37750000D02*
X24111562Y-38615213D01*
X24111562Y-38615213D02*
X21800000Y-38600000D01*
X21800000Y-38600000D02*
X21000000Y-37600000D01*
X21000000Y-37600000D02*
X21000000Y-33300000D01*
X21000000Y-33300000D02*
X17000000Y-29780000D01*
X36250000Y-37750000D02*
X35750000Y-37750000D01*
X35750000Y-37750000D02*
X34800000Y-38700000D01*
X34800000Y-38700000D02*
X32600000Y-38700000D01*
X32600000Y-38700000D02*
X32100000Y-38200000D01*
X32100000Y-38200000D02*
X32100000Y-35900000D01*
X32100000Y-35900000D02*
X30650000Y-34450000D01*
X25750000Y-30450000D02*
X27250000Y-30450000D01*
X52450000Y-33950000D02*
X52450000Y-34450000D01*
X51100000Y-32100000D02*
X52450000Y-33950000D01*
X28900000Y-32100000D02*
X51100000Y-32100000D01*
X28600000Y-31800000D02*
X28900000Y-32100000D01*
X27250000Y-30450000D02*
X28600000Y-31800000D01*
X36250000Y-30450000D02*
X35750000Y-30450000D01*
X35750000Y-30450000D02*
X34900000Y-31300000D01*
X34900000Y-31300000D02*
X32600000Y-31300000D01*
X32600000Y-31300000D02*
X32100000Y-30800000D01*
X32100000Y-30800000D02*
X32100000Y-28600000D01*
X32100000Y-28600000D02*
X30650000Y-27150000D01*
X46201969Y-23400000D02*
X46202148Y-23400000D01*
X46202148Y-23400000D02*
X46950000Y-22550000D01*
X46950000Y-22550000D02*
X47550000Y-22550000D01*
X47550000Y-22550000D02*
X47550000Y-22750000D01*
X46201969Y-23400000D02*
X43900000Y-23400000D01*
X43900000Y-23400000D02*
X43100000Y-22800000D01*
X43100000Y-22800000D02*
X43100000Y-21200000D01*
X43100000Y-21200000D02*
X41250000Y-19350000D01*
X47550000Y-37750000D02*
X47150000Y-37750000D01*
X47150000Y-37750000D02*
X46200000Y-38700000D01*
X46200000Y-38700000D02*
X43900000Y-38700000D01*
X43900000Y-38700000D02*
X43100000Y-37900000D01*
X43100000Y-37900000D02*
X43100000Y-36400000D01*
X43100000Y-36400000D02*
X41150000Y-34450000D01*
X47550000Y-30450000D02*
X47150000Y-30450000D01*
X47150000Y-30450000D02*
X46300000Y-31300000D01*
X46300000Y-31300000D02*
X43700000Y-31300000D01*
X43700000Y-31300000D02*
X43100000Y-30700000D01*
X43100000Y-30700000D02*
X43100000Y-29100000D01*
X43100000Y-29100000D02*
X41150000Y-27150000D01*
X58600000Y-24720000D02*
X56920000Y-24720000D01*
X53500000Y-19200000D02*
X52450000Y-19250000D01*
X56000000Y-21900000D02*
X53500000Y-19200000D01*
X55900000Y-23700000D02*
X56000000Y-21900000D01*
X56920000Y-24720000D02*
X55900000Y-23700000D01*
M02*
