G04 #@! TF.FileFunction,Copper,L2,Bot,Signal*
%FSLAX46Y46*%
G04 Gerber Fmt 4.6, Leading zero omitted, Abs format (unit mm)*
G04 Created by KiCad (PCBNEW 4.0.5) date Saturday, 18. February 2017 'u33' 22:33:09*
%MOMM*%
%LPD*%
G01*
G04 APERTURE LIST*
%ADD10C,0.100000*%
%ADD11O,3.010000X1.510000*%
%ADD12C,0.600000*%
%ADD13C,0.400000*%
G04 APERTURE END LIST*
D10*
D11*
X58600000Y-29800000D03*
X58600000Y-27260000D03*
X58600000Y-24720000D03*
X17000000Y-24700000D03*
X17000000Y-27240000D03*
X17000000Y-29780000D03*
D12*
X29100000Y-37800000D03*
X46800000Y-36400000D03*
X46700000Y-29000000D03*
X46800000Y-21200000D03*
X35300000Y-21200000D03*
X28900000Y-22600000D03*
X19500000Y-24700000D03*
X22800000Y-23400000D03*
X35200000Y-36500000D03*
X24700000Y-36300000D03*
X22800000Y-31300000D03*
X29200000Y-30400000D03*
X35400000Y-28900000D03*
X39700000Y-30500000D03*
X39300000Y-37800000D03*
X50900000Y-37800000D03*
X50900000Y-30400000D03*
X56300000Y-29800000D03*
X50800000Y-22600000D03*
X39600000Y-22700000D03*
D13*
G36*
X59229011Y-23257000D02*
X57806645Y-23257000D01*
X57246779Y-23368364D01*
X56772148Y-23685503D01*
X56455009Y-24160134D01*
X56343645Y-24720000D01*
X56455009Y-25279866D01*
X56772148Y-25754497D01*
X57124602Y-25990000D01*
X56772148Y-26225503D01*
X56455009Y-26700134D01*
X56343645Y-27260000D01*
X56455009Y-27819866D01*
X56772148Y-28294497D01*
X57140869Y-28540869D01*
X56777319Y-28803686D01*
X56477699Y-29290023D01*
X56414444Y-29517957D01*
X56565134Y-29746000D01*
X58546000Y-29746000D01*
X58546000Y-29726000D01*
X58654000Y-29726000D01*
X58654000Y-29746000D01*
X58674000Y-29746000D01*
X58674000Y-29854000D01*
X58654000Y-29854000D01*
X58654000Y-31263000D01*
X59264436Y-31263000D01*
X59299109Y-39099083D01*
X15797351Y-38900897D01*
X15693423Y-31140914D01*
X16206645Y-31243000D01*
X17793355Y-31243000D01*
X18353221Y-31131636D01*
X18827852Y-30814497D01*
X19144991Y-30339866D01*
X19196275Y-30082043D01*
X56414444Y-30082043D01*
X56477699Y-30309977D01*
X56777319Y-30796314D01*
X57240245Y-31130971D01*
X57796000Y-31263000D01*
X58546000Y-31263000D01*
X58546000Y-29854000D01*
X56565134Y-29854000D01*
X56414444Y-30082043D01*
X19196275Y-30082043D01*
X19256355Y-29780000D01*
X19144991Y-29220134D01*
X18827852Y-28745503D01*
X18475398Y-28510000D01*
X18827852Y-28274497D01*
X19144991Y-27799866D01*
X19256355Y-27240000D01*
X19144991Y-26680134D01*
X18827852Y-26205503D01*
X18459131Y-25959131D01*
X18822681Y-25696314D01*
X19122301Y-25209977D01*
X19185556Y-24982043D01*
X19034866Y-24754000D01*
X17054000Y-24754000D01*
X17054000Y-24774000D01*
X16946000Y-24774000D01*
X16946000Y-24754000D01*
X16926000Y-24754000D01*
X16926000Y-24646000D01*
X16946000Y-24646000D01*
X16946000Y-23237000D01*
X17054000Y-23237000D01*
X17054000Y-24646000D01*
X19034866Y-24646000D01*
X19185556Y-24417957D01*
X19122301Y-24190023D01*
X18822681Y-23703686D01*
X18359755Y-23369029D01*
X17804000Y-23237000D01*
X17054000Y-23237000D01*
X16946000Y-23237000D01*
X16196000Y-23237000D01*
X15640245Y-23369029D01*
X15589823Y-23405480D01*
X15502696Y-16900000D01*
X59200883Y-16900000D01*
X59229011Y-23257000D01*
X59229011Y-23257000D01*
G37*
X59229011Y-23257000D02*
X57806645Y-23257000D01*
X57246779Y-23368364D01*
X56772148Y-23685503D01*
X56455009Y-24160134D01*
X56343645Y-24720000D01*
X56455009Y-25279866D01*
X56772148Y-25754497D01*
X57124602Y-25990000D01*
X56772148Y-26225503D01*
X56455009Y-26700134D01*
X56343645Y-27260000D01*
X56455009Y-27819866D01*
X56772148Y-28294497D01*
X57140869Y-28540869D01*
X56777319Y-28803686D01*
X56477699Y-29290023D01*
X56414444Y-29517957D01*
X56565134Y-29746000D01*
X58546000Y-29746000D01*
X58546000Y-29726000D01*
X58654000Y-29726000D01*
X58654000Y-29746000D01*
X58674000Y-29746000D01*
X58674000Y-29854000D01*
X58654000Y-29854000D01*
X58654000Y-31263000D01*
X59264436Y-31263000D01*
X59299109Y-39099083D01*
X15797351Y-38900897D01*
X15693423Y-31140914D01*
X16206645Y-31243000D01*
X17793355Y-31243000D01*
X18353221Y-31131636D01*
X18827852Y-30814497D01*
X19144991Y-30339866D01*
X19196275Y-30082043D01*
X56414444Y-30082043D01*
X56477699Y-30309977D01*
X56777319Y-30796314D01*
X57240245Y-31130971D01*
X57796000Y-31263000D01*
X58546000Y-31263000D01*
X58546000Y-29854000D01*
X56565134Y-29854000D01*
X56414444Y-30082043D01*
X19196275Y-30082043D01*
X19256355Y-29780000D01*
X19144991Y-29220134D01*
X18827852Y-28745503D01*
X18475398Y-28510000D01*
X18827852Y-28274497D01*
X19144991Y-27799866D01*
X19256355Y-27240000D01*
X19144991Y-26680134D01*
X18827852Y-26205503D01*
X18459131Y-25959131D01*
X18822681Y-25696314D01*
X19122301Y-25209977D01*
X19185556Y-24982043D01*
X19034866Y-24754000D01*
X17054000Y-24754000D01*
X17054000Y-24774000D01*
X16946000Y-24774000D01*
X16946000Y-24754000D01*
X16926000Y-24754000D01*
X16926000Y-24646000D01*
X16946000Y-24646000D01*
X16946000Y-23237000D01*
X17054000Y-23237000D01*
X17054000Y-24646000D01*
X19034866Y-24646000D01*
X19185556Y-24417957D01*
X19122301Y-24190023D01*
X18822681Y-23703686D01*
X18359755Y-23369029D01*
X17804000Y-23237000D01*
X17054000Y-23237000D01*
X16946000Y-23237000D01*
X16196000Y-23237000D01*
X15640245Y-23369029D01*
X15589823Y-23405480D01*
X15502696Y-16900000D01*
X59200883Y-16900000D01*
X59229011Y-23257000D01*
M02*
